#!OML:ASF H:\IndianDance\Patient Classification 1\Patient 1\Session 1\dancer.ASF
:FULLY-SPECIFIED
:DEGREES
3516
root 0.883271 15.2562 7.44558 -175.53 -10.7246 -532.382
lowerback 7.0213 3.17342 4.88242
upperback -6.84492 4.62437 -0.251543
thorax -10.8919 1.72688 -3.72048
lowerneck -12.7649 15.0777 12.3685
upperneck 15.1451 17.9699 -0.200618
head 7.88243 9.22703 0.101349
rclavicle -8.00108e-015 2.06736e-014
rhumerus -1.47428 -54.7197 -12.2436
rradius 36.5603
rwrist -76.4226
rhand -31.0678 -20.6114
rfingers 7.12502
rthumb -4.34856 -50.5468
lclavicle -8.00108e-015 2.06736e-014
lhumerus 32.6561 -48.7127 -8.30469
lradius 110.733
lwrist 5.90258
lhand -36.6492 -366.604
lfingers 7.12502
lthumb -9.73623 1463.15
rfemur -19.8543 -22.8383 29.0134
rtibia 41.6559
rfoot -19.3899 -15.2195
rtoes 2.1827
lfemur -53.3164 32.8875 -11.5733
ltibia 89.1401
lfoot 22.5616 -6.02929
ltoes 23.3821
3517
root 0.933993 15.2202 7.45637 -176.074 -10.8278 -531.3
lowerback 7.48158 3.33656 5.9649
upperback -6.70777 5.04365 0.0379649
thorax -10.9216 1.86056 -4.09948
lowerneck -12.4353 15.0371 11.8963
upperneck 14.7974 18.0455 -0.126572
head 7.66162 9.2496 0.14798
rclavicle 7.60351e-015 4.77083e-015
rhumerus -1.49385 -53.9456 -11.1043
rradius 34.6762
rwrist -72.3547
rhand -31.1798 -21.2505
rfingers 7.12502
rthumb -4.45677 -51.1836
lclavicle 7.60351e-015 4.77083e-015
lhumerus 34.3914 -49.3838 -9.28623
lradius 111.853
lwrist 5.49221
lhand -37.1624 -367.252
lfingers 7.12502
lthumb -10.2313 1462.48
rfemur -19.3413 -23.6827 30.1989
rtibia 41.2309
rfoot -19.7482 -14.6892
rtoes 2.05685
lfemur -55.9933 34.5996 -10.5858
ltibia 94.43
lfoot 23.4525 -9.44898
ltoes 19.4039
3518
root 0.977302 15.1838 7.46774 -176.542 -10.6019 -530.313
lowerback 8.00662 3.50343 6.89741
upperback -6.6957 5.45562 0.308233
thorax -11.1344 1.98325 -4.42546
lowerneck -12.1316 15.1569 12.0297
upperneck 14.8753 18.2204 -0.131282
head 7.66031 9.34185 0.135335
rclavicle -8.68192e-014 -1.03368e-014
rhumerus -1.7133 -51.9634 -10.1742
rradius 33.608
rwrist -70.606
rhand -30.4911 -22.6619
rfingers 7.12502
rthumb -3.7917 -52.6079
lclavicle -8.68192e-014 -1.03368e-014
lhumerus 35.5771 -50.2552 -10.0034
lradius 112.803
lwrist 4.81517
lhand -37.5363 -369.072
lfingers 7.12502
lthumb -10.592 1460.64
rfemur -18.977 -24.4221 31.2768
rtibia 41.0572
rfoot -20.2307 -13.9363
rtoes 2.27253
lfemur -58.6193 36.7734 -9.58548
ltibia 99.8211
lfoot 24.0654 -11.8199
ltoes 20.1995
3519
root 1.01481 15.1519 7.47682 -176.846 -10.0836 -529.675
lowerback 8.44218 3.75613 7.4303
upperback -6.69719 5.92468 0.499254
thorax -11.3189 2.16092 -4.62038
lowerneck -11.9075 15.2173 11.8762
upperneck 14.9729 18.3145 0.103813
head 7.62318 9.40118 0.22424
rclavicle 4.05521e-014 -7.95139e-016
rhumerus -2.13922 -49.3965 -9.30869
rradius 33.4157
rwrist -71.2256
rhand -5.29497 -8.392
rfingers 7.12502
rthumb 20.51 -37.3286
lclavicle 4.05521e-014 -7.95139e-016
lhumerus 36.6503 -51.0837 -10.6319
lradius 113.798
lwrist 4.31632
lhand -38.0864 -370.428
lfingers 7.12502
lthumb -11.1226 1459.26
rfemur -18.7361 -24.8839 31.9712
rtibia 41.0664
rfoot -20.6979 -13.2687
rtoes 2.00586
lfemur -61.1173 39.4624 -8.95778
ltibia 105.17
lfoot 24.5725 -14.45
ltoes 21.8977
3520
root 1.04922 15.1078 7.48397 -177.014 -9.40611 -529.489
lowerback 8.77382 3.98485 7.49206
upperback -6.67813 6.28193 0.541171
thorax -11.4523 2.32256 -4.69374
lowerneck -11.9732 15.4294 12.1592
upperneck 15.3526 18.4847 0.341416
head 7.77567 9.51529 0.310796
rclavicle 3.12589e-014 2.70347e-014
rhumerus -2.15338 -47.1845 -9.23349
rradius 33.7277
rwrist -72.887
rhand -29.3489 -23.704
rfingers 7.12502
rthumb -2.6887 -53.6668
lclavicle 3.12589e-014 2.70347e-014
lhumerus 37.2475 -51.8467 -11.0086
lradius 114.805
lwrist 3.83124
lhand -38.129 -372.017
lfingers 7.12502
lthumb -11.1637 1457.67
rfemur -18.6251 -25.2021 32.1612
rtibia 41.2601
rfoot -21.3258 -12.3764
rtoes 3.02131
lfemur -63.3267 42.7163 -9.19766
ltibia 110.34
lfoot 23.1344 -17.9753
ltoes 19.1032
3521
root 1.08279 15.08 7.48637 -177.064 -8.60859 -529.656
lowerback 9.00666 4.22097 7.12756
upperback -6.69166 6.57432 0.49347
thorax -11.6013 2.4837 -4.61567
lowerneck -11.8932 15.6198 12.5265
upperneck 15.6683 18.6401 0.502082
head 7.89856 9.62131 0.34881
rclavicle 7.00716e-015 4.77083e-015
rhumerus -2.76379 -42.8592 -8.71635
rradius 35.1366
rwrist -77.526
rhand -29.9685 -23.9445
rfingers 7.12502
rthumb -3.28706 -53.8989
lclavicle 7.00716e-015 4.77083e-015
lhumerus 37.5305 -52.6095 -11.2336
lradius 115.796
lwrist 2.99402
lhand -38.192 -373.131
lfingers 7.12502
lthumb -11.2244 1456.55
rfemur -18.5475 -25.2636 32.0086
rtibia 41.5032
rfoot -21.8171 -11.9061
rtoes 2.43097
lfemur -65.4265 46.4267 -9.54562
ltibia 115.431
lfoot 22.9418 -19.0505
ltoes 20.9924
